<svg id="Camada_1" data-name="Camada 1" xmlns="http://www.w3.org/2000/svg" viewBox="0 0 282.7 64.26"><defs><style>.cls-1,.cls-2{fill:#fff;}.cls-1{fill-rule:evenodd;}</style></defs><title>logo-sou3m</title><path class="cls-1" d="M163.64,271a9.05,9.05,0,0,0,.88,1.89c3.34,0,6.2-2.5,10.1-2.4,4.75,0.11,6.07,2.4,10.73,2.4a11.18,11.18,0,0,0,5.1-1.21,15,15,0,0,1,5.26-1.19,19.39,19.39,0,0,1,2.84.3c3.39,0.68,3.73,2.09,8.39,2.09,3.6,0,5.63-2,8.71-2.26,0.59,0,1.07-.13,1.52-0.14l2.82,0.33c2.81,0.65,4.46,2.07,7.4,2.07,0.17-.33.25-0.58,0.45-0.94a3.14,3.14,0,0,0,.43-1,5.85,5.85,0,0,1-1-.11,8.48,8.48,0,0,1-3.3-.49L220.37,269a12.21,12.21,0,0,0-8.24.7,10.77,10.77,0,0,1-3.8,1.12,14.85,14.85,0,0,1-5.43-.38l-0.47-.15-0.27-.09c-2-.68-3.34-1.65-6.2-1.65-3.57,0-5.21,1.47-7.67,2-3.23.38-5.29,0.57-8.36-.78a12.09,12.09,0,0,0-10.73,0,10.17,10.17,0,0,1-3.91,1c-0.77,0-.92.13-1.64,0.13" transform="translate(-108.65 -217.87)"/><path class="cls-1" d="M165.41,274.25a9.72,9.72,0,0,0,1,1.77c3.86-.9,3.08-2,8.71-2,4.66,0,5,2.27,10.35,2.27,4.44,0,6.93-3.39,13.69-1.95,2.39,0.51,3.31,1.95,7.52,1.95a12.15,12.15,0,0,0,5-1.1,14,14,0,0,1,10.1-.46,15.06,15.06,0,0,0,3.75,1.3,2.52,2.52,0,0,1,.47-0.8,1.7,1.7,0,0,0,.42-1,13.17,13.17,0,0,1-4.17-1.14c-2-1-3.18-1-5.56-1a10.16,10.16,0,0,0-4.94,1.25c-3.61,1.49-6.25,1.2-9.68.25l-0.64-.24c-2.66-1.19-3-1.26-6.2-1.26-4.34,0-7.82,4.21-15,1.28-2.87-1.16-2.78-1.28-6.17-1.28-3.93,0-5.61,2.14-8.59,2.14" transform="translate(-108.65 -217.87)"/><path class="cls-1" d="M167.55,277.28c0.06,0.72.72,0.9,0.88,1.51,2.51-.58,2-1.39,6.69-1.39,4.53,0,4.35,2.27,10.73,2.27,4.46,0,4.45-2.27,10.6-2.27,4.53,0,4.35,2.27,10.73,2.27,4.44,0,4.49-2.27,10.6-2.27a10.12,10.12,0,0,1,3,.46c0.51,0.15.75,0.28,1.2,0.44s0.89,0.4,1.28.49a2.57,2.57,0,0,0,.62-0.65,1.41,1.41,0,0,0,.52-0.87c-1.17,0-3.4-1.77-6.31-1.77-3.43,0-3.29,0-6.42,1.28a13.87,13.87,0,0,1-9.06.43l-0.64-.22a12.19,12.19,0,0,0-6.86-1.49c-2.85,0-4.63,1.57-7.08,2-6.94,1.23-8.51-2-12.61-2a11.64,11.64,0,0,0-4.91.65,19.44,19.44,0,0,1-2.92,1.12" transform="translate(-108.65 -217.87)"/><path class="cls-1" d="M160.23,254.94a36.2,36.2,0,0,0,1.59,11.53,21.61,21.61,0,0,1,.93,2.86,16.27,16.27,0,0,0,3,0c2.94-.48,3.32-1.24,5-1.67a14.56,14.56,0,0,1,9.5.75,12.32,12.32,0,0,0,9.93,0,14.07,14.07,0,0,1,11.4,0,12.32,12.32,0,0,0,9.93,0,14.49,14.49,0,0,1,9.4-.77c1.67,0.38,2,1.1,5,1.67a15.49,15.49,0,0,0,3.09.07l1.84-6.11c1.39-6.06.92-11-.53-16.79a13.3,13.3,0,0,0-.45-1.69l-1.54-3.87a40.86,40.86,0,0,0-3.69-6.17,34.48,34.48,0,0,0-7.73-7.66,38.27,38.27,0,0,0-7-4,35.7,35.7,0,0,0-9-2.47l-0.44-.08a7.08,7.08,0,0,0-1-.13c-5.54-.36-10.67,0-15.77,2-0.51.2-1,.35-1.57,0.57a40.41,40.41,0,0,0-4.28,2.16,31.93,31.93,0,0,0-3.83,2.6c-0.41.3-.83,0.62-1.2,0.95a36.8,36.8,0,0,0-3.8,3.78,31.47,31.47,0,0,0-4,5.68,13.55,13.55,0,0,0-1.1,2.08,1.48,1.48,0,0,1-.17.33,30.86,30.86,0,0,0-2.43,6.77,31.8,31.8,0,0,0-1.06,7.65" transform="translate(-108.65 -217.87)"/><path class="cls-1" d="M110.87,232.84c0,3.6.22,5.93,2.44,8.77l1.57,1.67a24.18,24.18,0,0,0,8.4,4.44c5,1.67,10.12,2.36,15.36,3.82l7.9,3.32a11.25,11.25,0,0,1,4,4.14,6.86,6.86,0,0,1,.85,2.25c0.19,0.9.27,2,.37,2.89a19.79,19.79,0,0,1-.26,2.94,8.94,8.94,0,0,1-.75,2.49,15.09,15.09,0,0,1-6.15,6.69c-7.16,4-18.35,3.15-25.38-.39a30.85,30.85,0,0,1-7.47-4.92,9.1,9.1,0,0,0-1.73-1.37,5.88,5.88,0,0,0-.89.88c-0.4.36,0.1,0.11-.44,0.3,0.06,0.71,1.55,1.77,2.17,2.26a33.71,33.71,0,0,0,5.31,3.54,20.3,20.3,0,0,0,3,1.47,32.27,32.27,0,0,0,6.72,2.13,31.62,31.62,0,0,0,8.12.67c0.71-.1,1.39,0,2.11-0.1,4.36-.63,7.9-1.43,11.51-4.13,0.47-.35.84-0.63,1.25-1l1.12-1.09a16.28,16.28,0,0,0,3.24-5.6c1.19-3.55.76-9-1.34-11.84a14.3,14.3,0,0,0-4.65-4.2,29.66,29.66,0,0,0-4.47-2.16l-5-1.6c-2-.56-5.25-1.16-7.34-1.65a42.83,42.83,0,0,1-11.53-4c-0.5-.28-0.85-0.55-1.34-0.87a9.66,9.66,0,0,1-2.33-2.1,11.07,11.07,0,0,1-1.58-2.85,13.33,13.33,0,0,1-.14-7.33,13.75,13.75,0,0,1,2.82-4.85l1.45-1.35c8.18-6.61,20.16-4.89,28.79-.07,1.51,0.84,2.59,1.65,3.94,2.55a18.91,18.91,0,0,0,1.33-1.77c-1.47-.78-4.09-3-7.4-4.26a34.26,34.26,0,0,0-9.32-2.49c-6.6-.86-13.35.33-18.63,4.44-2.4,1.87-5.52,6.11-5.52,10.27" transform="translate(-108.65 -217.87)"/><path class="cls-1" d="M238.13,253.78a45.29,45.29,0,0,0,.4,6.09c0.14,1,.28,1.89.49,2.76a25.92,25.92,0,0,0,2.46,7.28c0.39,0.79.75,1.32,1.18,2.06a20.5,20.5,0,0,0,8.08,7.4c6.72,3.62,16.75,3.54,23.53.51a24,24,0,0,0,5.58-3.72,22.65,22.65,0,0,0,4.12-5.32,24.28,24.28,0,0,0,1.94-4.4,37.09,37.09,0,0,0,1.79-10.75V220h-2.06v35.25c0,6.5-1.77,13.09-5.64,17.82-6.53,8-19.44,9-28.24,4.56-0.59-.3-0.89-0.54-1.38-0.83a21,21,0,0,1-8.61-11.9c-1.82-7.34-1.56-8.78-1.56-16.58,0-3.12.15-5.86,0.15-8.85v-19c0-.65-0.69-0.44-2.21-0.44v33.78Z" transform="translate(-108.65 -217.87)"/><path class="cls-2" d="M391.35,222.74v52.08a5,5,0,0,1-4.94,4.85,4.84,4.84,0,0,1-4.85-4.85V237.65l-12.71,17.66a4.82,4.82,0,0,1-4,2h-0.18a5,5,0,0,1-4.06-2L348,237.65v37.17a4.9,4.9,0,0,1-9.8,0V222.74a4.9,4.9,0,0,1,4.86-4.85h0.26a4.77,4.77,0,0,1,3.88,2l17.57,24.36,17.57-24.36a4.81,4.81,0,0,1,4-2h0.09A5,5,0,0,1,391.35,222.74Z" transform="translate(-108.65 -217.87)"/><path class="cls-2" d="M326.56,243.47A21.58,21.58,0,0,1,333,258.92a21.91,21.91,0,0,1-37.43,15.54,5,5,0,1,1,7.06-7.06,11.75,11.75,0,0,0,8.39,3.44,12.1,12.1,0,0,0,8.47-3.44,11.82,11.82,0,0,0,3.53-8.48,11.48,11.48,0,0,0-3.53-8.39,11.84,11.84,0,0,0-8.39-3.53,4.36,4.36,0,0,1-3.62-1.59c-0.09,0-.09,0-0.09-0.09a5,5,0,0,1-.18-7.06l9-9.18h-14.3a5,5,0,0,1,0-10h26a5,5,0,0,1,5,4.94,5.31,5.31,0,0,1-.62,2.38,6.22,6.22,0,0,1-.88,1.24l-11.12,11.48A20,20,0,0,1,326.56,243.47Z" transform="translate(-108.65 -217.87)"/></svg>